<svg xmlns="http://www.w3.org/2000/svg" width="256" height="256"><path fill-opacity=".016" d="M0 128.004v128.004l128.25-.254 128.25-.254.254-127.75L257.008 0H0v128.004m.485.496c0 70.4.119 99.053.265 63.672.146-35.38.146-92.98 0-128C.604 29.153.485 58.1.485 128.5" fill="#1976D2" fill-rule="evenodd"/><path fill-opacity=".195" d="M114 .623C57.914 7.763 14.308 47.765 2.401 103c-2.562 11.885-2.562 38.115 0 50 5.591 25.936 16.685 46.276 35.504 65.095 18.819 18.819 39.159 29.913 65.095 35.504 11.885 2.562 38.115 2.562 50 0 50.562-10.9 88.947-48.723 100.062-98.599 1.042-4.675 1.904-10.161 1.916-12.191.012-2.03.472-3.969 1.022-4.309.569-.351 1-5.363 1-11.618 0-7.079-.356-10.78-1-10.382-.599.37-1.009-.911-1.022-3.191-.012-2.095-.874-7.634-1.916-12.309C242.116 51.884 204.407 14.158 155 2.894 146.652.991 121.887-.381 114 .623M.378 128c0 6.325.163 8.912.361 5.75.198-3.163.198-8.338 0-11.5-.198-3.163-.361-.575-.361 5.75" fill="#1976D2" fill-rule="evenodd"/><path fill-opacity=".158" d="M119 28.526c-.825.162-4.875.84-9 1.508-54.221 8.778-91.183 63.994-79.52 118.792 12.155 57.113 71.534 91.92 127.02 74.457 30.7-9.662 55.719-34.293 65.296-64.283 3.6-11.274 4.623-18.134 4.623-31 0-6.875-.573-15.2-1.273-18.5-7.752-36.512-32.079-64.321-66.646-76.186-11.25-3.862-32.441-6.367-40.5-4.788m5.5 26.629c-3.528 1.929-4.5 4.097-4.5 10.036V71h-4.134c-9.298 0-17.035 4.586-20.776 12.315-1.847 3.814-2.087 6.112-2.068 19.751.018 12.788.335 16.12 1.849 19.434 2.274 4.978 7.47 10.127 11.592 11.488 1.721.568 10.6 1.14 19.73 1.272 21.58.312 20.807-.27 20.807 15.672 0 16.757.815 16.068-19 16.068-15.283 0-15.946-.084-17.443-2.223-.856-1.222-1.557-3.168-1.557-4.325 0-3.039-4.417-6.785-8-6.785-1.786 0-4.032.954-5.508 2.341-4.668 4.385-2.476 14.91 4.524 21.72 3.786 3.683 7.349 5.032 14.484 5.483l5 .316.259 5.487c.389 8.232.982 9.801 4.363 11.549 3.301 1.707 6.148 1.423 9.378-.937 1.572-1.148 2.107-2.982 2.5-8.562.275-3.906.95-7.189 1.5-7.296.55-.107 3.609-.502 6.797-.878 7.618-.898 12.838-4.513 16.17-11.199 2.383-4.782 2.533-6.002 2.533-20.572 0-17.554-1.155-21.628-7.646-26.979-5.26-4.335-9.513-5.14-27.163-5.14-20.046 0-19.191.72-19.191-16.15 0-11.454.056-11.749 2.635-13.777C114.01 87.204 115.624 87 128 87c12.376 0 13.99.204 16.365 2.073 1.578 1.24 2.635 3.065 2.635 4.545 0 3.496 4.211 7.382 8 7.382 7.335 0 10.25-8.721 5.91-17.685C157.169 75.586 149.432 71 140.134 71H136v-5.418c0-6.87-.581-8.314-4.072-10.119-3.337-1.726-4.731-1.784-7.428-.308" fill="#1976D2" fill-rule="evenodd"/><path fill-opacity=".189" d="M113.5 29.659c-21.134 3.352-40.525 13.214-55.576 28.265C45.275 70.573 36.53 85.698 31.862 103c-1.955 7.246-2.293 10.935-2.293 25s.338 17.754 2.293 25c8.461 31.364 31.644 57.033 61.367 67.948 12.754 4.684 17.747 5.476 34.771 5.514 14.226.033 17.671-.282 25-2.282 17.356-4.739 32.453-13.481 45.076-26.104 12.649-12.649 21.394-27.774 26.062-45.076 1.955-7.246 2.293-10.935 2.293-25s-.338-17.754-2.293-25c-4.668-17.302-13.413-32.427-26.062-45.076-8.859-8.859-17.175-14.696-28.457-19.976-13.321-6.233-21.976-8.131-38.619-8.47-7.975-.163-15.85-.081-17.5.181m8.089 27.418c-2.096 2.491-2.589 4.12-2.589 8.559 0 3.362-.383 5.245-.99 4.87-1.908-1.179-12.45 1.527-16.274 4.177-2.124 1.472-5.071 4.733-6.549 7.247C92.564 86.391 92.5 86.895 92.5 103c0 15.134.184 16.844 2.221 20.653 2.727 5.1 8.131 9.686 13.201 11.206 2.13.638 10.513 1.141 19.01 1.141 8.565 0 16.044.452 17.134 1.035 1.757.941 1.934 2.203 1.934 13.8 0 8.595-.392 13.157-1.2 13.965-1.726 1.726-32.168 1.68-33.562-.05-.554-.687-1.319-2.707-1.699-4.488-1.539-7.199-9.487-9.468-14.745-4.21-2.759 2.759-2.993 3.479-2.442 7.503 1.655 12.071 11.01 20.422 22.898 20.439L119 184v5.923c0 4.914.441 6.448 2.589 9 3.665 4.356 9.157 4.356 12.822 0 2.132-2.534 2.589-4.097 2.589-8.861v-5.784l6.155-.558c9.748-.884 17.327-7.37 19.937-17.061.635-2.357.938-9.894.728-18.099-.393-15.407-1.058-17.644-7.011-23.597-5.531-5.531-8.549-6.277-27.309-6.75-9.35-.236-17.562-.885-18.25-1.443-1.714-1.392-1.758-25.862-.05-27.57.831-.831 6-1.2 16.8-1.2 16.162 0 18 .434 18 4.25 0 6.091 6.298 10.588 12.03 8.59 8.957-3.123 6.683-18.916-3.766-26.157-3.824-2.65-14.366-5.356-16.274-4.177-.607.375-.99-1.508-.99-4.87C137 58.278 133.691 54 128 54c-3.04 0-4.352.629-6.411 3.077" fill="#1976D2" fill-rule="evenodd"/></svg>